<?xml version="1.0" encoding="utf-8"?>
<!-- Generator: Adobe Illustrator 25.4.1, SVG Export Plug-In . SVG Version: 6.00 Build 0)  -->
<svg version="1.1" id="Layer_1" xmlns="http://www.w3.org/2000/svg" xmlns:xlink="http://www.w3.org/1999/xlink" x="0px" y="0px"
	 viewBox="0 0 443.54 326.65" style="enable-background:new 0 0 443.54 326.65;" xml:space="preserve">
<style type="text/css">
	.st0{fill:#003263;}
	.st1{fill:#001373;}
	.st2{fill:#FFFFFF;}
	.st3{opacity:0.32;}
	.st4{fill:#FFD416;}
	.st5{opacity:0.9;fill:#9526BF;}
	.st6{fill:#6900FF;}
	.st7{fill:#4000FF;}
	.st8{fill:#E2D0F0;}
	.st9{fill:#9526BF;}
	.st10{opacity:0.9;}
	.st11{fill:#FDDA0D;}
</style>
<g>
	<g>
		<circle class="st11" cx="221.77" cy="79.07" r="79.07"/>
		<g>
			<polygon class="st2" points="262.42,123.84 181.12,123.84 181.12,111.94 250.52,111.94 250.52,78.25 204.93,78.25 204.93,66.35 
				262.42,66.35 			"/>
			<polygon class="st2" points="262.42,61.43 245.59,61.43 221.77,37.6 193.02,66.35 193.02,89.14 238.61,89.14 238.61,101.04 
				181.12,101.04 181.12,61.42 213.35,29.19 220.29,22.26 221.77,20.78 230.19,29.19 262.42,61.42 			"/>
		</g>
	</g>
	<g>
		<g>
			<path class="st2" d="M79.74,318.9H67.26l-0.67,1.84h13.83L79.74,318.9z M74.78,305.01h-2.24l-9.81,21.46h2.36l2.56-5.73
				l0.82-1.84l5.17-11.55l5.17,11.55l0.83,1.84l2.56,5.73h2.39L74.78,305.01z"/>
			<path class="st2" d="M117.67,310.16c-0.96-1.62-2.3-2.88-4.03-3.79c-1.73-0.91-3.74-1.36-6.03-1.36h-8.73v21.46h8.73
				c2.29,0,4.3-0.46,6.03-1.37c1.73-0.9,3.07-2.17,4.03-3.78c0.96-1.62,1.44-3.48,1.44-5.58
				C119.11,313.63,118.63,311.77,117.67,310.16z M115.71,320.29c-0.78,1.32-1.87,2.35-3.27,3.1c-1.4,0.74-3.05,1.12-4.95,1.12h-6.34
				v-17.54h6.34c1.9,0,3.55,0.37,4.95,1.12c1.4,0.74,2.49,1.77,3.27,3.08c0.78,1.31,1.16,2.83,1.16,4.57
				C116.87,317.45,116.49,318.97,115.71,320.29z"/>
			<path class="st2" d="M149.87,305.01l-8.28,18.67l-8.22-18.67h-2.45l9.5,21.46h2.24l9.51-21.46H149.87z"/>
			<path class="st2" d="M168.02,314.6v1.93h11.34v-1.93H168.02z M168.26,324.51v-17.54h12.45v-1.96h-14.72v21.46h15.18v-1.96H168.26
				z"/>
			<path class="st2" d="M209.13,319.1l-0.3-0.42h-2.46l0.63,0.88l4.89,6.91h2.49L209.13,319.1z M211.7,306.95
				c-1.57-1.29-3.71-1.94-6.43-1.94h-8.03v21.46h2.27v-6.81h5.76c0.61,0,1.18-0.03,1.73-0.1c0.77-0.09,1.48-0.24,2.13-0.46
				c0.29-0.09,0.56-0.19,0.83-0.31c1.31-0.58,2.32-1.42,3.02-2.52c0.71-1.09,1.06-2.39,1.06-3.9
				C214.04,310.06,213.26,308.25,211.7,306.95z M210.1,316.32c-1.11,0.94-2.74,1.41-4.89,1.41h-5.7v1.07l-0.09-0.09l-0.92-0.98h1.01
				v-10.76h-1.01l1.01-1.07v1.07h5.7c2.15,0,3.78,0.47,4.89,1.41c1.11,0.94,1.67,2.27,1.67,3.99
				C211.77,314.06,211.21,315.38,210.1,316.32z"/>
			<path class="st2" d="M226.46,305.01v1.96H234v19.5h2.27v-19.5h7.54v-1.96H226.46z"/>
			<path class="st2" d="M258.16,305.01v21.46h2.27v-21.46H258.16z"/>
			<path class="st2" d="M291.35,318.07c-0.48-0.7-1.11-1.25-1.9-1.67c-0.79-0.42-1.64-0.76-2.57-1.03
				c-0.93-0.27-1.87-0.51-2.81-0.74c-0.94-0.22-1.8-0.48-2.59-0.76c-0.79-0.29-1.42-0.69-1.9-1.2c-0.48-0.51-0.72-1.18-0.72-2.02
				c0-0.74,0.2-1.4,0.6-1.98c0.39-0.58,1.01-1.05,1.85-1.39c0.84-0.35,1.9-0.53,3.19-0.53c0.96,0,1.96,0.15,2.99,0.43
				c1.03,0.29,2.01,0.74,2.93,1.35l0.76-1.81c-0.85-0.59-1.88-1.05-3.06-1.39c-1.19-0.34-2.38-0.51-3.59-0.51
				c-1.82,0-3.31,0.27-4.48,0.81c-1.16,0.55-2.03,1.26-2.59,2.15c-0.56,0.89-0.84,1.87-0.84,2.93c0,1.14,0.24,2.07,0.72,2.77
				c0.48,0.71,1.11,1.28,1.9,1.71c0.79,0.43,1.65,0.77,2.59,1.02c0.94,0.26,1.88,0.5,2.82,0.72c0.94,0.23,1.8,0.49,2.58,0.79
				c0.78,0.29,1.4,0.7,1.88,1.21c0.48,0.51,0.72,1.18,0.72,2.02c0,0.7-0.19,1.33-0.59,1.9c-0.4,0.57-1.03,1.03-1.87,1.37
				c-0.85,0.33-1.95,0.5-3.3,0.5c-1.41,0-2.75-0.25-4.03-0.75s-2.3-1.12-3.05-1.85l-0.89,1.74c0.8,0.82,1.92,1.49,3.39,2.01
				c1.46,0.52,2.99,0.78,4.58,0.78c1.84,0,3.35-0.27,4.52-0.81c1.18-0.54,2.05-1.26,2.62-2.15c0.58-0.88,0.86-1.85,0.86-2.89
				C292.07,319.67,291.83,318.76,291.35,318.07z"/>
			<path class="st2" d="M307.74,305.01v21.46h2.27v-21.46H307.74z"/>
			<path class="st2" d="M343.43,305.01v17.41l-13.83-17.41h-1.87v21.46H330v-17.4l13.8,17.4h1.87v-21.46H343.43z"/>
			<path class="st2" d="M378.51,315.74v7.91l2.17,0.27v-8.18H378.51z M378.51,322.96c-0.67,0.49-1.38,0.87-2.13,1.12
				c-1.1,0.37-2.26,0.55-3.48,0.55c-1.31,0-2.52-0.22-3.64-0.66c-1.11-0.44-2.08-1.06-2.91-1.87c-0.83-0.81-1.47-1.75-1.93-2.84
				c-0.46-1.08-0.69-2.25-0.69-3.52c0-1.29,0.23-2.47,0.69-3.54c0.46-1.08,1.1-2.02,1.93-2.82c0.83-0.81,1.8-1.44,2.91-1.87
				c1.12-0.44,2.34-0.66,3.67-0.66c1.24,0,2.41,0.19,3.49,0.58c1.09,0.39,2.08,1.03,2.98,1.93l1.41-1.44
				c-0.96-1.04-2.12-1.82-3.48-2.33s-2.86-0.77-4.5-0.77c-1.63,0-3.14,0.27-4.52,0.81c-1.38,0.55-2.58,1.31-3.6,2.29
				c-1.02,0.98-1.82,2.14-2.38,3.46c-0.56,1.33-0.84,2.78-0.84,4.36c0,1.57,0.28,3.02,0.84,4.35c0.56,1.33,1.35,2.49,2.36,3.47
				c1.02,0.98,2.21,1.74,3.59,2.28s2.89,0.81,4.52,0.81c1.5,0,2.93-0.23,4.3-0.69c1.37-0.46,2.56-1.14,3.58-2.04l-1.28-1.71
				C379.11,322.49,378.82,322.73,378.51,322.96z"/>
		</g>
		<g>
			<g>
				<path class="st2" d="M59.77,226.9c-27.28-1.6-32.9-2.93-32.9-10.16c0-6.95,5.62-9.22,29.29-9.22c25.01,0,35.3,2.54,35.3,12.83
					h24.07c0-23.13-21.4-31.95-56.69-31.95c-35.04,0-56.03,6.55-56.03,27.14c0,21,16.17,27.41,56.96,29.28
					c30.36,1.48,35.7,2.81,35.7,10.57c0,7.35-7.62,10.16-32.89,10.16c-30.49,0-38.51-4.54-38.51-14.44H0
					c0,27.01,22.87,33.56,61.24,33.56c34.63,0,58.3-5.08,58.3-30.09C119.54,230.92,96.68,228.91,59.77,226.9z"/>
				<path class="st2" d="M119.55,188.4v20.76h45.46v75.51h24.06v-75.51h45.47V188.4H119.55z"/>
				<path class="st2" d="M276.09,188.4l-64.57,96.23h26.47c12.7-20.19,25.4-40.37,38.1-60.56c12.66,20.19,25.32,40.37,37.99,60.56
					h26.6L276.09,188.4z"/>
				<path class="st2" d="M414.52,188.4l-35.97,43.87l-35.97-43.87h-29.01l52.95,64.64v31.63h24.07v-31.63l52.95-64.64H414.52z"/>
			</g>
			<circle class="st2" cx="276.1" cy="272.6" r="12.08"/>
		</g>
	</g>
</g>
</svg>
