<?xml version="1.0" encoding="utf-8"?>
<!-- Generator: Adobe Illustrator 25.4.1, SVG Export Plug-In . SVG Version: 6.00 Build 0)  -->
<svg version="1.1" id="Layer_1" xmlns="http://www.w3.org/2000/svg" xmlns:xlink="http://www.w3.org/1999/xlink" x="0px" y="0px"
	 viewBox="0 0 1860.47 158.14" style="enable-background:new 0 0 1860.47 158.14;" xml:space="preserve">
<style type="text/css">
	.st0{fill:#003263;}
	.st1{fill:#001373;}
	.st2{fill:#FFFFFF;}
	.st3{opacity:0.32;}
	.st4{fill:#FFD416;}
	.st5{opacity:0.9;fill:#9526BF;}
	.st6{fill:#6900FF;}
	.st7{fill:#4000FF;}
	.st8{fill:#E2D0F0;}
	.st9{fill:#9526BF;}
	.st10{opacity:0.9;}
	.st11{fill:#FDDA0D;}
</style>
<g>
	<g>
		<circle class="st11" cx="79.07" cy="79.07" r="79.07"/>
		<g>
			<polygon points="119.71,123.84 38.42,123.84 38.42,111.94 107.81,111.94 107.81,78.25 62.22,78.25 62.22,66.35 119.71,66.35 			
				"/>
			<polygon points="119.71,61.43 102.89,61.43 79.07,37.6 50.32,66.35 50.32,89.14 95.91,89.14 95.91,101.04 38.42,101.04 
				38.42,61.42 70.65,29.19 77.58,22.26 79.07,20.78 87.48,29.19 119.71,61.42 			"/>
		</g>
	</g>
	<g>
		<g>
			<g>
				<path class="st2" d="M265.43,68.86c-27.28-1.6-32.9-2.93-32.9-10.16c0-6.95,5.62-9.22,29.29-9.22c25.01,0,35.3,2.54,35.3,12.83
					h24.07c0-23.13-21.4-31.95-56.69-31.95c-35.04,0-56.03,6.55-56.03,27.14c0,21,16.17,27.41,56.96,29.28
					c30.36,1.48,35.7,2.81,35.7,10.57c0,7.35-7.62,10.16-32.89,10.16c-30.49,0-38.51-4.54-38.51-14.44h-24.07
					c0,27.01,22.87,33.56,61.24,33.56c34.63,0,58.3-5.08,58.3-30.09C325.2,72.88,302.34,70.87,265.43,68.86z"/>
				<path class="st2" d="M325.21,30.36v20.76h45.46v75.51h24.06V51.12h45.47V30.36H325.21z"/>
				<path class="st2" d="M481.75,30.36l-64.57,96.23h26.47c12.7-20.19,25.4-40.37,38.1-60.56c12.66,20.19,25.32,40.37,37.99,60.56
					h26.6L481.75,30.36z"/>
				<path class="st2" d="M620.18,30.36l-35.97,43.87l-35.97-43.87h-29.01L572.18,95v31.63h24.07V95l52.95-64.64H620.18z"/>
			</g>
			<circle class="st2" cx="481.75" cy="114.56" r="12.08"/>
		</g>
		<g>
			<path class="st2" d="M759.11,106.73h-57.66l-10.32,20.5h-27.25l49.68-96.33H747l49.82,96.33h-27.39L759.11,106.73z M749.89,88.29
				l-19.54-39.08l-19.68,39.08H749.89z"/>
			<path class="st2" d="M919.43,79.07c0,32.75-21.88,48.17-46.79,48.17h-69.91V30.9h69.91C897.55,30.9,919.43,46.32,919.43,79.07z
				 M894.66,79.07c0-23.39-12.66-27.39-31.38-27.39H827.5v54.77h35.78C882,106.46,894.66,102.46,894.66,79.07z"/>
			<path class="st2" d="M1045.9,30.9l-49.54,96.33h-33.85L912.96,30.9h27.8l38.67,78.03l38.67-78.03H1045.9z"/>
			<path class="st2" d="M1076.59,50.58v19.54h77.07v17.89h-77.07v19.54h77.07v19.68h-101.84V30.9h101.84v19.68H1076.59z"/>
			<path class="st2" d="M1254.26,98.61l17.75,28.62h-29.18l-15.55-25.73h-39.91v25.73h-24.77V30.9h75.69
				c21.88,0,36.88,13.9,36.88,35.37C1275.18,81.96,1267.2,93.52,1254.26,98.61z M1187.38,80.72h44.04c7.43,0,18.99,0,18.99-14.45
				c0-14.59-11.56-14.59-18.99-14.59h-44.04V80.72z"/>
			<path class="st2" d="M1398.62,51.68h-46.79v75.55h-24.77V51.68h-46.79V30.9h118.35V51.68z"/>
			<path class="st2" d="M1431.51,127.24h-24.77V30.9h24.77V127.24z"/>
			<path class="st2" d="M1464.4,94.07c0,10.18,8.26,14.86,39.63,14.86c26.01,0,33.85-2.89,33.85-10.46c0-7.98-5.5-9.36-36.74-10.87
				c-41.97-1.93-58.63-8.53-58.63-30.14c0-21.19,21.61-27.94,57.66-27.94c36.33,0,58.35,9.08,58.35,32.89h-24.77
				c0-10.6-10.6-13.21-36.33-13.21c-24.36,0-30.14,2.34-30.14,9.5c0,7.43,5.78,8.81,33.85,10.46c37.98,2.06,61.52,4.13,61.52,28.49
				c0,25.73-24.36,30.96-60,30.96c-39.5,0-63.03-6.74-63.03-34.54H1464.4z"/>
			<path class="st2" d="M1596.38,127.24h-24.77V30.9h24.77V127.24z"/>
			<path class="st2" d="M1731.52,30.9v96.33h-33.72l-65.64-72.25v72.25h-24.77V30.9h33.58l65.78,72.39V30.9H1731.52z"/>
			<path class="st2" d="M1799.37,75.63h61.1v51.61h-18.3l-1.1-15.14c-9.08,9.91-23.53,16.51-44.04,16.51
				c-35.51,0-57.25-17.62-57.25-49.54s21.74-49.54,61.38-49.54c38.53,0,57.8,15,59.31,38.95h-25.18
				c-1.38-7.29-7.98-18.17-34.13-18.17c-32.2,0-36.61,17.75-36.61,29.31c0,11.7,4.54,29.86,36.61,29.86
				c23.95,0,33.58-10.46,34.13-17.75h-35.92V75.63z"/>
		</g>
	</g>
</g>
</svg>
